<svg xmlns="http://www.w3.org/2000/svg" width="41.333" height="42.42" viewBox="0 0 41.333 42.42">
  <g id="calendar-svgrepo-com" transform="translate(-106.667 -64)">
    <path id="Path_79393"  d="M106.667,324.772v-26.1H148v26.1a4.364,4.364,0,0,1-4.351,4.351H111.018a4.364,4.364,0,0,1-4.351-4.351Z" transform="translate(0 -222.702)" fill="#cfd8dc"/>
    <path id="Path_79394"  d="M148,132.351v6.526H106.667v-6.526A4.364,4.364,0,0,1,111.018,128h32.631A4.364,4.364,0,0,1,148,132.351Z" transform="translate(0 -60.737)" fill="#f44336"/>
    <path id="Path_79395"  d="M643.263,152.6m-3.263,0a3.263,3.263,0,1,0,3.263-3.263A3.263,3.263,0,0,0,640,152.6Z" transform="translate(-506.141 -80.982)" fill="#b71c1c"/>
    <path id="Path_79396"  d="M259.263,152.6m-3.263,0a3.263,3.263,0,1,0,3.263-3.263A3.263,3.263,0,0,0,256,152.6Z" transform="translate(-141.719 -80.982)" fill="#b71c1c"/>
    <path id="Path_79397"  d="M299.087,64a2.182,2.182,0,0,0-2.175,2.175v5.439a2.175,2.175,0,1,0,4.351,0V66.175A2.182,2.182,0,0,0,299.087,64Zm-19.579,0a2.182,2.182,0,0,0-2.175,2.175v5.439a2.175,2.175,0,1,0,4.351,0V66.175A2.182,2.182,0,0,0,279.509,64Z" transform="translate(-161.965)" fill="#b0bec5"/>
    <path id="Path_79398"  d="M277.333,426.667h4.351v4.351h-4.351Zm6.526,0h4.351v4.351h-4.351Zm6.526,0h4.351v4.351h-4.351Zm6.526,0h4.351v4.351h-4.351Zm-19.579,6.526h4.351v4.351h-4.351Zm6.526,0h4.351v4.351h-4.351Zm6.526,0h4.351v4.351h-4.351Zm6.526,0h4.351v4.351h-4.351Zm-19.579,6.526h4.351v4.351h-4.351Zm6.526,0h4.351v4.351h-4.351Zm6.526,0h4.351v4.351h-4.351Zm6.526,0h4.351v4.351h-4.351Z" transform="translate(-161.965 -344.176)" fill="#90a4ae"/>
  </g>
</svg>
