<svg xmlns="http://www.w3.org/2000/svg" width="39.538" height="42.833" viewBox="0 0 39.538 42.833">
  <g id="bus-svgrepo-com_2_" transform="translate(-128 -85.333)">
    <path id="Path_79440"  d="M219.923,747.765a1.1,1.1,0,0,0-1.1-1.1h-4.393a1.1,1.1,0,0,0-1.1,1.1v6.59a1.1,1.1,0,0,0,1.1,1.1h4.393a1.1,1.1,0,0,0,1.1-1.1Zm24.162,0a1.1,1.1,0,0,0-1.1-1.1h-4.393a1.1,1.1,0,0,0-1.1,1.1v6.59a1.1,1.1,0,0,0,1.1,1.1h4.393a1.1,1.1,0,0,0,1.1-1.1Z" transform="translate(-80.94 -627.286)" fill="#455a64"/>
    <path id="Path_79441"  d="M203.067,85.333H173.413a2.746,2.746,0,0,0-2.746,2.746v33.5a2.151,2.151,0,0,0,2.2,2.2h30.752a2.151,2.151,0,0,0,2.2-2.2v-33.5a2.746,2.746,0,0,0-2.746-2.746Z" transform="translate(-40.471)" fill="#ffc107"/>
    <path id="Path_79442"  d="M132.393,388.941a1.647,1.647,0,0,1-1.647,1.647h-1.1A1.647,1.647,0,0,1,128,388.941v-3.294A1.647,1.647,0,0,1,129.647,384h1.1a1.647,1.647,0,0,1,1.647,1.647v3.294Zm35.145,0a1.647,1.647,0,0,1-1.647,1.647h-1.1a1.647,1.647,0,0,1-1.647-1.647v-3.294A1.647,1.647,0,0,1,164.792,384h1.1a1.647,1.647,0,0,1,1.647,1.647v3.294Z" transform="translate(0 -283.291)" fill="#ffc107"/>
    <path id="Path_79443"  d="M237.412,642.745m-2.746,0A2.746,2.746,0,1,0,237.412,640,2.746,2.746,0,0,0,234.667,642.745Z" transform="translate(-101.176 -526.111)" fill="#fff8e1"/>
    <path id="Path_79444"  d="M685.412,642.745m-2.746,0A2.746,2.746,0,1,0,685.412,640,2.746,2.746,0,0,0,682.667,642.745Z" transform="translate(-526.111 -526.111)" fill="#fff8e1"/>
    <path id="Path_79445"  d="M242.438,128H214.98a1.647,1.647,0,0,0-1.647,1.647V147.22a2.746,2.746,0,0,0,2.746,2.746h25.261a2.746,2.746,0,0,0,2.746-2.746V129.647A1.648,1.648,0,0,0,242.438,128Z" transform="translate(-80.94 -40.47)" fill="#9fa8da"/>
    <path id="Path_79446"  d="M244.085,134.59H213.333v-4.942A1.647,1.647,0,0,1,214.98,128h27.457a1.647,1.647,0,0,1,1.647,1.647Z" transform="translate(-80.94 -40.47)" fill="#263238"/>
    <path id="Path_79447"  d="M256,170.667h12.081v2.2H256Zm14.278,0h4.393v2.2h-4.393Z" transform="translate(-121.411 -80.941)" fill="#64dd17"/>
    <path id="Path_79448"  d="M286.119,372.552h-8.786v-8.237a1.647,1.647,0,0,1,1.647-1.647h5.491a1.647,1.647,0,0,1,1.648,1.647Zm15.376,0h-8.786v-8.237a1.647,1.647,0,0,1,1.647-1.647h5.492a1.647,1.647,0,0,1,1.647,1.647Z" transform="translate(-141.645 -263.056)" fill="#7986cb"/>
    <path id="Path_79449"  d="M557.335,453.492a1.659,1.659,0,0,1-.472-1.1c0-1.191,1.509-2.2,3.295-2.2s3.295,1.006,3.295,2.2a1.658,1.658,0,0,1-.472,1.1h2.473a3.517,3.517,0,0,0,.2-1.1c0-2.423-2.464-4.393-5.491-4.393s-5.491,1.97-5.491,4.393a3.515,3.515,0,0,0,.2,1.1Z" transform="translate(-404.701 -343.996)" fill="#3949ab"/>
  </g>
</svg>
