<svg xmlns="http://www.w3.org/2000/svg" width="19.566" height="19.566" viewBox="0 0 19.566 19.566">
  <g id="phone-calling-rounded-svgrepo-com" transform="translate(-3.249 -1.185)">
    <path id="Path_79478"  d="M14,2s2.2.2,5,3,3,5,3,5" fill="none" stroke="#91d9ff" stroke-linecap="round" stroke-width="1.5"/>
    <path id="Path_79479"  d="M14.207,5.536A6.71,6.71,0,0,1,16.682,7.3,6.711,6.711,0,0,1,18.45,9.778" fill="none" stroke="#91d9ff" stroke-linecap="round" stroke-width="1.5"/>
    <path id="Path_79480"  d="M10.038,5.316l.649,1.163a2.832,2.832,0,0,1-.572,3.349h0s-1.119,1.119.91,3.148,3.147.911,3.148.91h0a2.832,2.832,0,0,1,3.349-.572l1.163.649a2.82,2.82,0,0,1,.379,4.5,4.637,4.637,0,0,1-3,1.531,11.173,11.173,0,0,1-8.4-3.661,11.173,11.173,0,0,1-3.661-8.4,4.637,4.637,0,0,1,1.531-3A2.82,2.82,0,0,1,10.038,5.316Z" fill="none" stroke="#91d9ff" stroke-linecap="round" stroke-width="1.5"/>
  </g>
</svg>
