<svg xmlns="http://www.w3.org/2000/svg" width="21.5" height="21.5" viewBox="0 0 21.5 21.5">
  <g id="chat-line-svgrepo-com" transform="translate(-1.25 -1.25)">
    <path id="Path_79276" data-name="Path 79276" d="M13.087,21.388l.645.382Zm.542-.916-.646-.382Zm-3.258,0-.645.382h0Zm.542.916.645-.382ZM2.381,15.913l.693-.287h0ZM7.79,18.992l-.013.75Zm-2.7-.372-.287.693h0Zm16.533-2.706.693.287h0ZM16.21,18.992l-.013-.75Zm2.7-.372.287.693h0Zm.7-15.883-.392.639Zm1.651,1.651L21.9,4h0ZM4.388,2.737,4,2.1H4ZM2.737,4.388,2.1,4h0ZM9.4,19.21l.377-.648h0Zm4.329,2.56.542-.916-1.291-.764-.542.916Zm-4.006-.916.542.916,1.291-.764-.542-.916Zm2.715.152a.521.521,0,0,1-.883,0l-1.291.764a2.02,2.02,0,0,0,3.464,0ZM10.5,2.75h3V1.25h-3ZM21.25,10.5v1h1.5v-1Zm-18.5,1v-1H1.25v1Zm-1.5,0c0,1.155,0,2.058.049,2.787A5.956,5.956,0,0,0,1.688,16.2l1.386-.574A4.5,4.5,0,0,1,2.8,14.185c-.045-.666-.046-1.51-.046-2.685ZM7.8,18.242a6.733,6.733,0,0,1-2.429-.315L4.8,19.312a8.079,8.079,0,0,0,2.977.429ZM1.688,16.2A5.75,5.75,0,0,0,4.8,19.312l.574-1.386a4.25,4.25,0,0,1-2.3-2.3ZM21.25,11.5c0,1.175,0,2.019-.046,2.685a4.507,4.507,0,0,1-.278,1.442l1.386.574a5.955,5.955,0,0,0,.388-1.914c.05-.729.049-1.632.049-2.787Zm-5.027,8.241a8.079,8.079,0,0,0,2.977-.429l-.574-1.386a6.733,6.733,0,0,1-2.429.315Zm4.7-4.115a4.25,4.25,0,0,1-2.3,2.3l.574,1.386A5.75,5.75,0,0,0,22.312,16.2ZM13.5,2.75c1.651,0,2.837,0,3.762.089a4.418,4.418,0,0,1,1.959.538L20,2.1a5.875,5.875,0,0,0-2.6-.752c-1.012-.1-2.282-.1-3.9-.1Zm9.25,7.75c0-1.622,0-2.891-.1-3.9A5.874,5.874,0,0,0,21.9,4l-1.279.784a4.418,4.418,0,0,1,.538,1.959c.088.925.089,2.111.089,3.762ZM19.221,3.376a4.249,4.249,0,0,1,1.4,1.4L21.9,4A5.75,5.75,0,0,0,20,2.1ZM10.5,1.25c-1.622,0-2.891,0-3.9.1A5.874,5.874,0,0,0,4,2.1l.784,1.279a4.418,4.418,0,0,1,1.959-.538c.925-.088,2.111-.089,3.762-.089ZM2.75,10.5c0-1.651,0-2.837.089-3.762a4.418,4.418,0,0,1,.538-1.959L2.1,4a5.874,5.874,0,0,0-.752,2.6c-.1,1.012-.1,2.282-.1,3.9ZM4,2.1A5.75,5.75,0,0,0,2.1,4l1.279.784a4.25,4.25,0,0,1,1.4-1.4ZM11.017,20.09c-.2-.343-.381-.646-.554-.883a2.229,2.229,0,0,0-.682-.645l-.754,1.3a.764.764,0,0,1,.224.232c.121.167.259.4.476.764Zm-3.24-.348c.439.008.717.013.929.037a.787.787,0,0,1,.32.08l.754-1.3a2.244,2.244,0,0,0-.909-.274c-.3-.033-.657-.038-1.068-.045Zm6.5,1.113c.217-.367.354-.6.476-.764a.763.763,0,0,1,.224-.232l-.754-1.3a2.228,2.228,0,0,0-.682.645c-.173.238-.351.54-.555.883ZM16.2,18.242c-.411.007-.771.013-1.069.045a2.244,2.244,0,0,0-.909.274l.754,1.3a.788.788,0,0,1,.32-.08c.212-.023.49-.029.929-.037Z" fill="#a9a9a9"/>
    <path id="Path_79277" data-name="Path 79277" d="M8,9h8" fill="none" stroke="#a9a9a9" stroke-linecap="round" stroke-width="1.5"/>
    <path id="Path_79278" data-name="Path 79278" d="M8,12.5h5.5" fill="none" stroke="#a9a9a9" stroke-linecap="round" stroke-width="1.5"/>
  </g>
</svg>
