<svg xmlns="http://www.w3.org/2000/svg" width="29.52" height="42.897" viewBox="0 0 29.52 42.897">
  <g id="Group_4766" transform="translate(-338 -323)">
    <path id="Path_79450"  d="M97.165,91.3a23.239,23.239,0,0,1,12.188,20.452c0,.154,0,.307,0,.461-.37,19.113-29.14,19.113-29.511,0,0-.154,0-.307,0-.461A23.238,23.238,0,0,1,92.02,91.3" transform="translate(258.167 239.346)" fill="#65b4bb"/>
    <path id="Path_79451"  d="M94.593,126.549c-7.286,0-14.57-4.777-14.756-14.334,0-.154,0-.307,0-.461A23.24,23.24,0,0,1,92.02,91.3h1.014c-4.4,3.933-7.385,11.616-7.385,20.452,0,.154,0,.307,0,.461C85.763,121.772,90.179,126.549,94.593,126.549Z" transform="translate(258.167 239.348)" fill="#57a3a7"/>
    <path id="Path_79452"  d="M158.847,5.848A23.319,23.319,0,0,0,166.727,0h-17.97a23.326,23.326,0,0,0,7.879,5.848" transform="translate(195.018 323)" fill="#65b4bb"/>
    <path id="Path_79453"  d="M154.183,0A17.968,17.968,0,0,0,157.3,5.848h-.668A23.326,23.326,0,0,1,148.757,0Z" transform="translate(195.018 323)" fill="#57a3a7"/>
    <path id="Path_79454"  d="M198.1,63.055h-8.429a1.466,1.466,0,0,0-1.466,1.466h0a1.466,1.466,0,0,0,1.466,1.466H198.1a1.466,1.466,0,0,0,1.466-1.466h0A1.466,1.466,0,0,0,198.1,63.055Z" transform="translate(158.876 265.228)" fill="#fed159"/>
    <path id="Path_79549"  d="M11.14-11.08a.6.6,0,0,1,.43.16.55.55,0,0,1,.17.42.583.583,0,0,1-.17.43.583.583,0,0,1-.43.17H9.58A3.629,3.629,0,0,1,8.52-7.34a4.569,4.569,0,0,1-2.7,1.2,2.683,2.683,0,0,1,.9.52,6.306,6.306,0,0,1,.9,1L10.2-1.1a.852.852,0,0,1,.2.52.665.665,0,0,1-.23.51.788.788,0,0,1-.55.21A.893.893,0,0,1,8.9-.24L5.76-4.52A3.878,3.878,0,0,0,4.61-5.67a2.943,2.943,0,0,0-1.45-.31H1.04a.839.839,0,0,1-.58-.18.638.638,0,0,1-.2-.5.638.638,0,0,1,.2-.5.839.839,0,0,1,.58-.18h3.7q3.04,0,3.2-2.56H.86a.592.592,0,0,1-.42-.17.566.566,0,0,1-.18-.43.535.535,0,0,1,.18-.42.612.612,0,0,1,.42-.16H7.84q-.48-1.84-3.1-1.84H.86a.592.592,0,0,1-.42-.17.566.566,0,0,1-.18-.43.535.535,0,0,1,.18-.42.612.612,0,0,1,.42-.16H11.14a.6.6,0,0,1,.43.16.55.55,0,0,1,.17.42.583.583,0,0,1-.17.43.583.583,0,0,1-.43.17H8.36a2.94,2.94,0,0,1,1.12,1.84Z" transform="translate(348 358)" fill="#448588"/>
  </g>
</svg>
