<svg xmlns="http://www.w3.org/2000/svg" width="21.808" height="21.5" viewBox="0 0 21.808 21.5">
  <g id="gallery-download-svgrepo-com" transform="translate(-0.942 -1.25)">
    <path id="Path_79318"  d="M22,12c0,4.714,0,7.071-1.465,8.535S16.714,22,12,22s-7.071,0-8.536-1.465S2,16.714,2,12,2,4.929,3.464,3.464,7.286,2,12,2" fill="none" stroke="#a9a9a9" stroke-linecap="round" stroke-width="1.5"/>
    <path id="Path_79319"  d="M2,12.5l1.752-1.533a2.3,2.3,0,0,1,3.141.1l4.29,4.29a2,2,0,0,0,2.564.222l.3-.21a3,3,0,0,1,3.732.225L21,18.5" fill="none" stroke="#a9a9a9" stroke-linecap="round" stroke-width="1.5"/>
    <path id="Path_79320"  d="M17,11V2m0,9,3-3m-3,3L14,8" fill="none" stroke="#a9a9a9" stroke-linecap="round" stroke-linejoin="round" stroke-width="1.5"/>
  </g>
</svg>
