<svg xmlns="http://www.w3.org/2000/svg" width="31.333" height="30.282" viewBox="0 0 31.333 30.282">
  <g id="waving-hand-svgrepo-com" transform="translate(-2 -2.991)">
    <g id="Group_244" transform="translate(2 3.048)">
      <path id="Path_79210" d="M10.921,39.853a3.847,3.847,0,0,1-.731-.209c-.261-.1-.47-.157-.679-.261A6.659,6.659,0,0,1,8.205,38.6a6.677,6.677,0,0,1-2.037-2.3,6.576,6.576,0,0,1-.888-2.925,7.353,7.353,0,0,1,.052-1.515c.052-.261.1-.47.157-.731s.157-.47.209-.731l.052.731a3.527,3.527,0,0,0,.1.731,10.429,10.429,0,0,0,.261,1.358,8.668,8.668,0,0,0,.992,2.507A11.088,11.088,0,0,0,8.78,37.921c.313.313.679.627,1.045.94a5.55,5.55,0,0,0,.575.47l.522.522" transform="translate(-3.557 -16.142)" fill="#fff"/>
      <path id="Path_79211" d="M9.208,48.422a1.871,1.871,0,0,1-.575.209,2.221,2.221,0,0,1-.575.1,4.536,4.536,0,0,1-1.2.052,5.8,5.8,0,0,1-2.3-.627,4.431,4.431,0,0,1-1.776-1.619A6.691,6.691,0,0,1,2.209,45.5c-.052-.157-.1-.366-.157-.575,0-.157-.052-.313-.052-.522.157.157.261.313.366.418.157.157.261.313.366.418a9.651,9.651,0,0,0,.731.731,7.538,7.538,0,0,0,1.671,1.2,11.892,11.892,0,0,0,1.88.783c.313.1.679.157,1.045.261.157.052.366.052.522.1.261.052.418.052.627.1" transform="translate(-2 -22.83)" fill="#fff"/>
      <path id="Path_79212" d="M38.4,3.5a4.094,4.094,0,0,1,.731.261c.261.1.47.209.679.313a11.117,11.117,0,0,1,1.306.836,6.933,6.933,0,0,1,2.716,5.38,7.458,7.458,0,0,1-.157,1.515,3.847,3.847,0,0,1-.209.731c-.1.261-.157.47-.261.679l-.052-.731a3.448,3.448,0,0,0-.052-.731l-.157-1.41a9.8,9.8,0,0,0-2.455-4.857c-.313-.366-.679-.679-.992-1.045a5.551,5.551,0,0,0-.575-.47L38.4,3.5" transform="translate(-19.389 -3.291)" fill="#fff"/>
      <path id="Path_79213" d="M47.1,3.1a1.564,1.564,0,0,1,.522.209,2.439,2.439,0,0,1,.522.261,10.59,10.59,0,0,1,.94.679,4.709,4.709,0,0,1,1.306,1.88,4.338,4.338,0,0,1,.313,2.3,8.349,8.349,0,0,1-.261,1.1c-.052.157-.157.366-.209.522a2.453,2.453,0,0,1-.313.47V9.472c0-.366-.052-.679-.052-.992A7.089,7.089,0,0,0,49.4,6.6a11.03,11.03,0,0,0-.94-1.724c-.209-.261-.418-.575-.627-.836a2.616,2.616,0,0,0-.366-.418A1.491,1.491,0,0,0,47.1,3.1" transform="translate(-23.545 -3.1)" fill="#fff"/>
    </g>
    <g id="Group_245" transform="translate(5.036 3.043)">
      <path id="Path_79214" d="M8.955,17.8a2.063,2.063,0,0,0-.94,2.768L14.6,34.308l3.656-1.724L11.671,18.8A1.983,1.983,0,0,0,8.955,17.8" transform="translate(-7.813 -10.016)" fill="#fed504"/>
      <path id="Path_79215" d="M36.025,21.793l3.865-1.828L32.369,4.3A2.149,2.149,0,0,0,28.5,6.176l7.521,15.616" transform="translate(-17.595 -3.089)" fill="#fed504"/>
    </g>
    <path id="Path_79216" d="M30.413,3.2a1.093,1.093,0,0,0-.313.209,2.181,2.181,0,0,1,2.507,1.149l7.521,15.669.679-.313L33.286,4.249A2.135,2.135,0,0,0,30.413,3.2" transform="translate(-13.424 0)" fill="#d9b705"/>
    <path id="Path_79217" d="M20.582,28.625,24.6,26.692,16.926,10.71a2.22,2.22,0,1,0-4.022,1.88l7.678,16.034" transform="translate(-5.107 -3.066)" fill="#fed504"/>
    <path id="Path_79218" d="M14.813,9.706a1.093,1.093,0,0,0-.313.209,2.284,2.284,0,0,1,2.611,1.2l4.753,9.976,1.149.679L17.79,10.8a2.214,2.214,0,0,0-2.977-1.1" transform="translate(-5.971 -3.106)" fill="#d9b705"/>
    <path id="Path_79219" d="M27.082,22.543,31.1,20.611,23.426,4.629a2.209,2.209,0,0,0-2.977-1.045A2.253,2.253,0,0,0,19.4,6.561l7.678,15.982" transform="translate(-8.213 -0.17)" fill="#fed504"/>
    <g id="Group_246" transform="translate(5.865 3.149)">
      <path id="Path_79220" d="M21.313,3.506c-.1.052-.209.157-.313.209a2.284,2.284,0,0,1,2.611,1.2L28.991,16.2l1.149.679L24.29,4.6a2.23,2.23,0,0,0-2.977-1.1" transform="translate(-14.941 -3.294)" fill="#d9b705"/>
      <path id="Path_79221" d="M9.713,17.8a1.093,1.093,0,0,0-.313.209,1.988,1.988,0,0,1,2.35,1.149l3.917,8.2,1.149.679-4.387-9.192A1.965,1.965,0,0,0,9.713,17.8" transform="translate(-9.4 -10.124)" fill="#d9b705"/>
    </g>
    <path id="Path_79222" d="M40.1,14.644c-1.41-1.1-3.708.1-4.857,3.865-.783,2.611-.888,3.395-2.559,4.178l-.94-1.932s-14.833,7.155-14.258,8.3c0,0,1.776,5.536,4.805,8.1,4.492,3.865,14.99-.261,15.46-10.237.261-5.8,3.865-11.072,2.35-12.274" transform="translate(-7.39 -5.381)" fill="#fed504"/>
    <g id="Group_247" transform="translate(16.311 8.898)">
      <path id="Path_79223" d="M45.8,14.666a1.9,1.9,0,0,0-.888-.366c.052.052.157.052.209.1,1.567,1.2-.052,3.969-.94,6.476a15.487,15.487,0,0,0-1.253,6.006c.418,8.67-8.3,12.8-13.527,11.229,5.118,2.141,14.624-1.932,14.206-10.968a14.943,14.943,0,0,1,1.253-6.006c.836-2.507,2.455-5.275.94-6.476" transform="translate(-29.4 -14.3)" fill="#d9b705"/>
      <path id="Path_79224" d="M42.205,30c-3.238.366-7.991,5.014-4.648,10.08-2.455-5.118,1.567-8.565,4.126-9.767A2.313,2.313,0,0,1,42.205,30" transform="translate(-32.752 -21.8)" fill="#d9b705"/>
    </g>
  </g>
</svg>
