<svg xmlns="http://www.w3.org/2000/svg" width="43.236" height="42.42" viewBox="0 0 43.236 42.42">
  <g id="book-svgrepo-com" transform="translate(0 -4.828)">
    <g id="Group_1485" transform="translate(0.991 25.369)">
      <path id="Path_79417" d="M17.439,349.617H53.078v12.272H17.439l-4.279-2.12-1.426-4.954,2.214-3.771Z" transform="translate(-11.734 -341.042)" fill="#e6e9ed"/>
      <rect id="Rectangle_164" width="34.42" height="6.08" transform="translate(4.222 0)" fill="#e6e9ed"/>
    </g>
    <path id="Path_79418" d="M249.079,5.728a.9.9,0,0,0-1.2-.848A4.08,4.08,0,0,0,245.2,9.24a.9.9,0,0,0,.9.84l.062,0a.9.9,0,0,0,.838-.959,2.266,2.266,0,0,1,1.444-2.527l-.009,0h0A.9.9,0,0,0,249.079,5.728Z" transform="translate(-224.478)" fill="#434a54"/>
    <g id="Group_1486" transform="translate(5.405 27.433)">
      <path id="Path_79419"  d="M70.3,412.967H64.9a.9.9,0,0,1,0-1.8h5.4a.9.9,0,0,1,0,1.8Z" transform="translate(-63.999 -399.456)" fill="#ccd1d9"/>
      <path id="Path_79420"  d="M374.222,379.165a.9.9,0,0,0,0,1.8h9.908v-1.8Z" transform="translate(-347.2 -370.158)" fill="#ccd1d9"/>
      <path id="Path_79421"  d="M184.164,412.967h-12.61a.9.9,0,1,1,0-1.8h12.61a.9.9,0,0,1,0,1.8Z" transform="translate(-161.646 -399.456)" fill="#ccd1d9"/>
      <path id="Path_79422"  d="M438.221,443.165a.9.9,0,1,0,0,1.8h4.5v-1.8Z" transform="translate(-405.794 -428.754)" fill="#ccd1d9"/>
      <path id="Path_79423"  d="M178.76,274.312h-7.205a.9.9,0,1,1,0-1.8h7.205a.9.9,0,1,1,0,1.8Z" transform="translate(-161.646 -272.511)" fill="#ccd1d9"/>
      <path id="Path_79424"  d="M416.892,272.51a.9.9,0,0,0,0,1.8h3.6v-1.8Z" transform="translate(-386.267 -272.51)" fill="#ccd1d9"/>
    </g>
    <path id="Path_79425"  d="M164.565,40.118a5.728,5.728,0,0,0-4.615-2.275,7.831,7.831,0,0,0-2.875.588,7.841,7.841,0,0,0-2.875-.588,5.729,5.729,0,0,0-4.617,2.275,8.69,8.69,0,0,0-1.632,5.311A9.347,9.347,0,0,0,150.2,51.4a6.975,6.975,0,0,0,5.153,2.655,5.052,5.052,0,0,0,1.722-.3,5.04,5.04,0,0,0,1.721.3h0a6.975,6.975,0,0,0,5.153-2.655,9.347,9.347,0,0,0,2.25-5.973A8.7,8.7,0,0,0,164.565,40.118Z" transform="translate(-135.456 -30.227)" fill="#a0d468"/>
    <g id="Group_1487" transform="translate(19.446 7.616)" opacity="0.2">
      <path id="Path_79426"  d="M231.548,226.292a5.043,5.043,0,0,1-1.271.28c.15.013.3.02.45.02A5.061,5.061,0,0,0,232,226.43C231.846,226.391,231.7,226.346,231.548,226.292Z" transform="translate(-230.277 -210.378)" fill="#fff"/>
      <path id="Path_79427"  d="M277.246,40.118a5.728,5.728,0,0,0-4.615-2.275c-.152,0-.3.007-.458.017a5.713,5.713,0,0,1,4.172,2.258,8.693,8.693,0,0,1,1.632,5.311,9.339,9.339,0,0,1-2.25,5.973,7.157,7.157,0,0,1-4.7,2.635q.224.02.451.02h0a6.975,6.975,0,0,0,5.153-2.655,9.347,9.347,0,0,0,2.25-5.973A8.7,8.7,0,0,0,277.246,40.118Z" transform="translate(-267.584 -37.843)" fill="#fff"/>
    </g>
    <path id="Path_79428"  d="M78.685,237.045H47.16a2.7,2.7,0,0,1,0-5.4H78.685a.9.9,0,1,0,0-1.8H47.16a4.5,4.5,0,1,0,0,9.008H78.685a.9.9,0,0,0,0-1.8Z" transform="translate(-39.053 -206.01)" fill="#5d9cec"/>
    <path id="Path_79429"  d="M42.335,349.121H7.206a5.4,5.4,0,1,1,0-10.809H42.335a.9.9,0,1,0,0-1.8H7.206a7.205,7.205,0,1,0,0,14.411H42.335a.9.9,0,1,0,0-1.8Z" transform="translate(0 -303.673)" fill="#a0d468"/>
    <path id="Path_79430"  d="M74.655,421.837v2.7a.9.9,0,0,0,1.3.806l1.4-.7,1.4.7a.906.906,0,0,0,.4.1.9.9,0,0,0,.9-.9v-2.7Z" transform="translate(-68.351 -381.794)" fill="#ed5564"/>
  </g>
</svg>
