<svg xmlns="http://www.w3.org/2000/svg" width="49.2" height="42.367" viewBox="0 0 49.2 42.367">
  <g id="XMLID_5_" transform="translate(0 -25)">
    <path id="XMLID_2277_" d="M67.982,28.589h1.795v2.1h1.47V25.332h-1.47v1.975H67.982V25.332h-1.47v5.354h1.47Z" transform="translate(-57.422 -0.287)" fill="#565659"/>
    <path id="XMLID_2278_" d="M109.243,29.691a2.744,2.744,0,0,0,.852.615,2.576,2.576,0,0,0,1.109.234,2.64,2.64,0,0,0,1.1-.226,2.779,2.779,0,0,0,.863-.6,2.743,2.743,0,0,0,.566-.86,2.6,2.6,0,0,0,.2-1.014,2.724,2.724,0,0,0-.192-1,2.77,2.77,0,0,0-.547-.875,2.712,2.712,0,0,0-.852-.618,2.577,2.577,0,0,0-1.108-.234,2.672,2.672,0,0,0-1.1.223,2.776,2.776,0,0,0-.867.6,2.7,2.7,0,0,0-.569.863,2.63,2.63,0,0,0-.2,1.018,2.7,2.7,0,0,0,.2,1.01A2.781,2.781,0,0,0,109.243,29.691Zm.818-2.383a1.359,1.359,0,0,1,.222-.452,1.123,1.123,0,0,1,.381-.32,1.16,1.16,0,0,1,.547-.121,1.177,1.177,0,0,1,.539.117,1.16,1.16,0,0,1,.384.309,1.294,1.294,0,0,1,.23.445,1.826,1.826,0,0,1,.075.524,1.927,1.927,0,0,1-.072.52,1.394,1.394,0,0,1-.219.456,1.116,1.116,0,0,1-.381.324,1.288,1.288,0,0,1-1.1,0,1.137,1.137,0,0,1-.381-.316,1.368,1.368,0,0,1-.226-.449,1.828,1.828,0,0,1-.075-.524A1.886,1.886,0,0,1,110.062,27.308Z" transform="translate(-93.669 -0.095)" fill="#565659"/>
    <path id="XMLID_2281_" d="M156.356,30.1a1.453,1.453,0,0,0,.468-.524,1.689,1.689,0,0,0,.177-.811,1.624,1.624,0,0,0-.113-.641,1.236,1.236,0,0,0-.324-.449,2.068,2.068,0,0,0-.509-.32,5.481,5.481,0,0,0-.667-.249q-.234-.075-.418-.128a2.418,2.418,0,0,1-.313-.109.643.643,0,0,1-.2-.124.235.235,0,0,1-.068-.174.211.211,0,0,1,.117-.2.687.687,0,0,1,.313-.06,1.648,1.648,0,0,1,.494.079,4.248,4.248,0,0,1,.456.17,4.129,4.129,0,0,1,.468.241l.633-1.214q-.181-.09-.407-.192t-.486-.188a4.558,4.558,0,0,0-.539-.143,2.874,2.874,0,0,0-.573-.056,2.435,2.435,0,0,0-.758.117,1.972,1.972,0,0,0-.637.343,1.61,1.61,0,0,0-.441.566,1.8,1.8,0,0,0-.162.784,1.571,1.571,0,0,0,.079.52,1.131,1.131,0,0,0,.245.4,1.65,1.65,0,0,0,.422.317,3.927,3.927,0,0,0,.611.26q.241.083.456.143t.381.121a.869.869,0,0,1,.26.139.243.243,0,0,1,.094.192.2.2,0,0,1-.094.17.632.632,0,0,1-.336.064,2.19,2.19,0,0,1-.622-.09,3.9,3.9,0,0,1-.547-.2,4.439,4.439,0,0,1-.55-.294l-.633,1.289a3.762,3.762,0,0,0,.524.256,5.386,5.386,0,0,0,.588.2,5.256,5.256,0,0,0,.614.128,4.162,4.162,0,0,0,.6.045,3.186,3.186,0,0,0,.735-.087A1.97,1.97,0,0,0,156.356,30.1Z" transform="translate(-131.775)" fill="#565659"/>
    <path id="XMLID_2282_" d="M190.815,30.686h1.47V26.614h1.538V25.332h-4.554v1.282h1.546Z" transform="translate(-163.402 -0.287)" fill="#565659"/>
    <path id="XMLID_2283_" d="M233.084,29.4h-2.345v-.845h1.945V27.368h-1.945v-.754h2.277V25.332h-3.747v5.354h3.815Z" transform="translate(-197.935 -0.287)" fill="#565659"/>
    <path id="XMLID_2284_" d="M268.863,29.4h-2.428V25.332h-1.47v5.354h3.9Z" transform="translate(-228.753 -0.287)" fill="#565659"/>
    <path id="XMLID_2285_" d="M6.15,266.458a4.781,4.781,0,0,0-3.367,5.267H2.05a2.05,2.05,0,1,0,0,4.1h4.1Z" transform="translate(0 -208.459)" fill="#64c37d"/>
    <path id="XMLID_2286_" d="M319.1,271.725h-.733A4.781,4.781,0,0,0,315,266.458v9.367h4.1a2.05,2.05,0,0,0,0-4.1Z" transform="translate(-271.95 -208.459)" fill="#64c37d"/>
    <path id="XMLID_2287_" d="M59.35,93.7h4.1V65H45v36.9H55.25V93.7ZM57.3,69.1h4.1v4.1H57.3Zm0,8.2h4.1v4.1H57.3Zm0,8.2h4.1v4.1H57.3Zm-4.1,4.1H49.1V85.5h4.1Zm0-8.2H49.1V77.3h4.1Zm0-8.2H49.1V69.1h4.1Z" transform="translate(-38.85 -34.533)" fill="#dedde0"/>
    <path id="XMLID_2295_" d="M198.45,65H180V93.7h8.2v8.2h10.25Zm-12.3,24.6h-4.1V85.5h4.1Zm0-8.2h-4.1V77.3h4.1Zm0-8.2h-4.1V69.1h4.1Zm4.1-4.1h4.1v4.1h-4.1Zm0,8.2h4.1v4.1h-4.1Zm0,8.2h4.1v4.1h-4.1Z" transform="translate(-155.4 -34.533)" fill="#cdcdd0"/>
    <rect id="XMLID_2303_" width="4" height="8" transform="translate(20.6 59.181)" fill="#818085"/>
    <rect id="XMLID_2304_" width="4" height="8" transform="translate(24.6 59.181)" fill="#565659"/>
    <rect id="XMLID_2305_" width="4" height="8" transform="translate(16.6 59.181)" fill="#fff"/>
    <rect id="XMLID_2306_" width="4" height="8" transform="translate(28.6 59.181)" fill="#fff"/>
    <rect id="XMLID_2307_" width="4" height="4" transform="translate(10.6 43.181)" fill="#fff"/>
    <rect id="XMLID_2308_" width="4" height="4" transform="translate(18.6 43.181)" fill="#fff"/>
    <rect id="XMLID_2309_" width="4" height="4" transform="translate(26.6 43.181)" fill="#fff"/>
    <rect id="XMLID_2310_" width="4" height="4" transform="translate(34.6 43.181)" fill="#fff"/>
    <rect id="XMLID_2311_" width="4" height="4" transform="translate(10.6 34.181)" fill="#fff"/>
    <rect id="XMLID_2312_" width="4" height="4" transform="translate(18.6 34.181)" fill="#fff"/>
    <rect id="XMLID_2313_" width="4" height="4" transform="translate(26.6 34.181)" fill="#fff"/>
    <rect id="XMLID_2314_" width="4" height="4" transform="translate(34.6 34.181)" fill="#fff"/>
    <rect id="XMLID_2315_" width="4" height="3" transform="translate(10.6 51.181)" fill="#fff"/>
    <rect id="XMLID_2316_" width="4" height="3" transform="translate(18.6 51.181)" fill="#fff"/>
    <rect id="XMLID_2317_" width="4" height="3" transform="translate(26.6 51.181)" fill="#fff"/>
    <rect id="XMLID_2318_" width="4" height="3" transform="translate(34.6 51.181)" fill="#fff"/>
  </g>
</svg>
