<svg id="live-streaming" xmlns="http://www.w3.org/2000/svg" width="42" height="42" viewBox="0 0 42 42">
  <g id="Group_4734" transform="translate(0 0)">
    <g id="Group_4731" transform="translate(0 3.863)">
      <g id="Group_4730">
        <g id="Group_4729">
          <path id="Path_79644" d="M23.179,81.207V49.622a2.535,2.535,0,0,1,2.535-2.535H58.841a2.535,2.535,0,0,1,2.535,2.535V81.207Z" transform="translate(-21.278 -47.087)" fill="#3f6e90"/>
          <path id="Path_79645" d="M429.545,47.087H427.01a2.535,2.535,0,0,1,2.535,2.535V81.207h2.535V49.622A2.535,2.535,0,0,0,429.545,47.087Z" transform="translate(-391.982 -47.087)" fill="#355f7f"/>
          <path id="Path_79646" d="M54.085,91.023v19.824H87.212V78.587a.591.591,0,0,0-.592-.592H54.677a.591.591,0,0,0-.592.592V91.023Z" transform="translate(-49.648 -75.46)" fill="#d8ecfe"/>
          <g id="Group_4727" transform="translate(11.68 9.793)">
            <path id="Path_79647"  d="M152.471,324.434v-2.86h-1.522v2.86a1.364,1.364,0,0,1-1.082,1.335l-1.754.1-2.476.524a4.093,4.093,0,0,0-3.246,4v4.545h18.639V330.4a4.093,4.093,0,0,0-3.246-4l-2.476-.524-1.754-.1A1.364,1.364,0,0,1,152.471,324.434Z" transform="translate(-142.39 -308.85)" fill="#aee49e"/>
            <g id="Group_4719" transform="translate(11.289 17.022)">
              <path id="Path_79648"  d="M280,375.426l1.569.332a4.093,4.093,0,0,1,3.246,4v3.278h2.535V378.5a4.093,4.093,0,0,0-3.246-4l-2.476-.524Z" transform="translate(-280.003 -373.967)" fill="#8bd8a5"/>
            </g>
            <path id="Path_79649" d="M212.144,325.872a4.309,4.309,0,0,0,7.2,0l-1.754-.1a1.364,1.364,0,0,1-1.082-1.335v-2.86h-2.79v2.86a1.364,1.364,0,0,1-1.082,1.335Z" transform="translate(-206.422 -308.85)" fill="#ffcebf"/>
            <path id="Path_79650" d="M252.362,324.434v-2.86h-2.535V325.7a1.364,1.364,0,0,0,1.082,1.335l1.393.295a4.33,4.33,0,0,0,1.629-1.459l-.487-.1a1.364,1.364,0,0,1-1.082-1.335Z" transform="translate(-241.014 -308.85)" fill="#ffb09e"/>
            <g id="Group_4726" transform="translate(2.275)">
              <g id="Group_4725">
                <g id="Group_4724">
                  <path id="Path_79651"  d="M203.174,174.756H192.806v-6.246a2.047,2.047,0,0,1,2.047-2.047h6.274a2.047,2.047,0,0,1,2.047,2.047Z" transform="translate(-190.946 -166.464)" fill="#e19974"/>
                  <path id="Path_79652"  d="M265.873,166.463h-2.535a2.047,2.047,0,0,1,2.047,2.047v6.246h2.535V168.51A2.047,2.047,0,0,0,265.873,166.463Z" transform="translate(-255.692 -166.463)" fill="#dc8758"/>
                  <path id="Path_79653"  d="M203.174,216.137a5.436,5.436,0,0,1-3.206-2.515.234.234,0,0,0-.357-.06,10.327,10.327,0,0,1-1.859,1.3,10.627,10.627,0,0,1-4.945,1.275v3.322a5.212,5.212,0,0,0,3.155,4.8,5.118,5.118,0,0,0,2.029.1,5.576,5.576,0,0,0,2.018-.1,5.212,5.212,0,0,0,3.166-4.8Z" transform="translate(-190.946 -209.646)" fill="#ffcebf"/>
                  <path id="Path_79654"  d="M236.571,215.134a5.467,5.467,0,0,1-1.3-1.522.233.233,0,0,0-.356-.058,10.389,10.389,0,0,1-1.441,1.057,5.415,5.415,0,0,0,1.939,1.334.846.846,0,0,1,.531.784v2.721a4.69,4.69,0,0,1-1.114,3.227,4.77,4.77,0,0,1-3.563,1.569,5.183,5.183,0,0,0,7.213-4.8V216.13a5.435,5.435,0,0,1-1.91-1Z" transform="translate(-226.253 -209.638)" fill="#ffb09e"/>
                  <g id="Group_4722" transform="translate(3.909 7.372)">
                    <g id="Group_4720">
                      <path id="Path_79655" d="M218.418,258.608a.634.634,0,0,1-.634-.634v-1.006a.634.634,0,0,1,1.268,0v1.006A.634.634,0,0,1,218.418,258.608Z" transform="translate(-217.784 -256.335)" fill="#3f6e90"/>
                    </g>
                    <g id="Group_4721" transform="translate(5.002)">
                      <path id="Path_79656"  d="M279.4,258.608a.634.634,0,0,1-.634-.634v-1.006a.634.634,0,0,1,1.268,0v1.006A.634.634,0,0,1,279.4,258.608Z" transform="translate(-278.762 -256.335)" fill="#3f6e90"/>
                    </g>
                  </g>
                  <g id="Group_4723"  transform="translate(5.41 11.833)">
                    <path id="Path_79657"  d="M237.681,312.237a2.715,2.715,0,0,1-1.278-.337.634.634,0,1,1,.612-1.11,1.435,1.435,0,0,0,1.389,0,.634.634,0,0,1,.612,1.11A2.8,2.8,0,0,1,237.681,312.237Z" transform="translate(-236.075 -310.712)" fill="#ffb09e"/>
                  </g>
                  <path id="Path_79658"  d="M319.827,248.059h-.634V245.6h.634a1.227,1.227,0,0,1,1.227,1.227v.006A1.227,1.227,0,0,1,319.827,248.059Z" transform="translate(-306.965 -239.108)" fill="#ffcebf"/>
                  <path id="Path_79659"  d="M171.356,248.059h.634V245.6h-.634a1.227,1.227,0,0,0-1.227,1.227v.006A1.227,1.227,0,0,0,171.356,248.059Z" transform="translate(-170.129 -239.108)" fill="#ffb09e"/>
                </g>
              </g>
            </g>
          </g>
          <path id="Path_79660" d="M24.718,435.581v1.147a.845.845,0,0,1-.845.845H18.127a.845.845,0,0,1-.845-.845v-1.147a.845.845,0,0,0-.845-.845H.845a.845.845,0,0,0-.845.845v2.958a2.535,2.535,0,0,0,2.535,2.535h36.93A2.535,2.535,0,0,0,42,438.539v-2.958a.845.845,0,0,0-.845-.845H25.563A.845.845,0,0,0,24.718,435.581Z" transform="translate(0 -402.937)" fill="#355f7f"/>
          <g id="Group_4728" transform="translate(36.93 31.799)">
            <path id="Path_79661" d="M454.415,434.736H451.88a.845.845,0,0,1,.845.845v2.958a2.535,2.535,0,0,1-2.535,2.535h2.535a2.535,2.535,0,0,0,2.535-2.535v-2.958A.845.845,0,0,0,454.415,434.736Z" transform="translate(-450.19 -434.736)" fill="#305972"/>
          </g>
        </g>
      </g>
    </g>
    <g id="Group_4733"  transform="translate(10.216)">
      <path id="Path_79662" d="M143.406,10.8H127.227A2.7,2.7,0,0,1,124.532,8.1V2.695A2.7,2.7,0,0,1,127.227,0h16.179A2.7,2.7,0,0,1,146.1,2.695V8.1A2.7,2.7,0,0,1,143.406,10.8Z" transform="translate(-124.532 0)" fill="#f58a97"/>
      <path id="Path_79663" d="M326.245,0H323.71A2.7,2.7,0,0,1,326.4,2.695V8.1A2.7,2.7,0,0,1,323.71,10.8h2.535a2.7,2.7,0,0,0,2.7-2.695V2.695A2.7,2.7,0,0,0,326.245,0Z" transform="translate(-307.371 0)" fill="#f07281"/>
      <g id="Group_4732" transform="translate(2.024 1.865)">
        <path id="Path_79664"  d="M151.865,28.536h0c-.485,0-1.006,0-1.394,0V23.374a.634.634,0,0,0-1.268,0v5.8a.634.634,0,0,0,.527.625c.045.008,1.485.013,2.142.009a.634.634,0,0,0,0-1.268Z" transform="translate(-149.2 -22.74)" fill="#fff"/>
        <path id="Path_79665"  d="M205.789,22.739a.634.634,0,0,0-.634.634v5.8a.634.634,0,0,0,1.268,0v-5.8A.634.634,0,0,0,205.789,22.739Z" transform="translate(-200.565 -22.739)" fill="#fff"/>
        <path id="Path_79666"  d="M320.88,29.133h-1.788V27.526h1.61a.634.634,0,1,0,0-1.268h-1.61V24.653h1.788a.634.634,0,0,0,0-1.268h-2.422a.634.634,0,0,0-.634.634v5.748a.634.634,0,0,0,.634.634h2.422a.634.634,0,0,0,0-1.268Z" transform="translate(-303.992 -23.332)" fill="#fff"/>
        <path id="Path_79667"  d="M241.3,22.779a.633.633,0,0,0-.8.4l-1.427,4.3-1.5-4.314a.634.634,0,0,0-1.2.416l1.985,5.718a.765.765,0,0,0,1.446-.014l1.894-5.7A.634.634,0,0,0,241.3,22.779Z" transform="translate(-229.198 -22.736)" fill="#fff"/>
      </g>
    </g>
  </g>
  <g id="Group_4736" transform="translate(0 12.96)">
    <path id="Path_79668"  d="M.592,164.455H7.416a.591.591,0,0,1,.418.173l1.785,1.785a.338.338,0,0,0,.577-.239v-1.128a.592.592,0,0,1,.592-.592H12.2a.592.592,0,0,0,.592-.592v-5.283a.592.592,0,0,0-.592-.592H.592a.592.592,0,0,0-.592.592v5.283a.592.592,0,0,0,.592.592Z" transform="translate(0 -157.989)" fill="#aee49e"/>
    <path id="Path_79669"  d="M99.866,157.988H97.331a.592.592,0,0,1,.592.592v3.872a2,2,0,0,1-2,2,.59.59,0,0,0-.418.173l1.785,1.785a.338.338,0,0,0,.577-.239v-1.128a.592.592,0,0,1,.592-.592h1.411a.592.592,0,0,0,.592-.592V158.58A.591.591,0,0,0,99.866,157.988Z" transform="translate(-87.668 -157.988)" fill="#8bd8a5"/>
    <g id="Group_4735" transform="translate(2.7 2.599)">
      <path id="Path_79670" d="M39.668,190.942H33.546a.634.634,0,1,1,0-1.268h6.123a.634.634,0,0,1,0,1.268Z" transform="translate(-32.912 -189.674)" fill="#d5efc8"/>
    </g>
  </g>
</svg>
