<svg xmlns="http://www.w3.org/2000/svg" width="19.5" height="19.5" viewBox="0 0 19.5 19.5">
  <g id="menu-2-svgrepo-com" transform="translate(-2.25 -2.57)">
    <path id="Path_79377" data-name="Path 79377" d="M19,3.32H16a2,2,0,0,0-2,2v3a2,2,0,0,0,2,2h3a2,2,0,0,0,2-2v-3A2,2,0,0,0,19,3.32Z" fill="none" stroke="#a9a9a9" stroke-linecap="round" stroke-linejoin="round" stroke-width="1.5"/>
    <path id="Path_79378" data-name="Path 79378" d="M8,3.32H5a2,2,0,0,0-2,2v3a2,2,0,0,0,2,2H8a2,2,0,0,0,2-2v-3A2,2,0,0,0,8,3.32Z" fill="none" stroke="#a9a9a9" stroke-linecap="round" stroke-linejoin="round" stroke-width="1.5"/>
    <path id="Path_79379" data-name="Path 79379" d="M19,14.32H16a2,2,0,0,0-2,2v3a2,2,0,0,0,2,2h3a2,2,0,0,0,2-2v-3A2,2,0,0,0,19,14.32Z" fill="none" stroke="#a9a9a9" stroke-linecap="round" stroke-linejoin="round" stroke-width="1.5"/>
    <path id="Path_79380" data-name="Path 79380" d="M8,14.32H5a2,2,0,0,0-2,2v3a2,2,0,0,0,2,2H8a2,2,0,0,0,2-2v-3A2,2,0,0,0,8,14.32Z" fill="none" stroke="#a9a9a9" stroke-linecap="round" stroke-linejoin="round" stroke-width="1.5"/>
  </g>
</svg>
