<svg xmlns="http://www.w3.org/2000/svg" width="39.414" height="43.098" viewBox="0 0 39.414 43.098">
  <g id="Group_4738" transform="translate(-3061 -1090)">
    <path id="Path_79671" d="M247.76,0h-1.319l-.88,4.734h2.2Z" transform="translate(2834.266 1090)" fill="#c1c1c1"/>
    <rect id="Rectangle_3297" width="1.319" height="4.734" transform="translate(3079.388 1090)" fill="#dfdfdf"/>
    <path id="Path_79672" d="M254.3,406.967h-7.86l-.88,1.319.88,1.319h7.86Z" transform="translate(2834.266 717.288)" fill="#9b9b9b"/>
    <rect id="Rectangle_3298"  width="7.86" height="2.638" transform="translate(3072.847 1124.255)" fill="#c1c1c1"/>
    <rect id="Rectangle_3299"  width="17.43" height="25.924" transform="translate(3079.827 1094.734)" fill="#f7c02d"/>
    <rect id="Rectangle_3300"  width="16.551" height="25.924" transform="translate(3064.156 1094.734)" fill="#fbe27b"/>
    <rect id="Rectangle_3301"  width="12.434" height="2.638" transform="translate(3088.803 1133.098) rotate(-101.882)" fill="#c1c1c1"/>
    <rect id="Rectangle_3302"  width="2.638" height="12.434" transform="translate(3072.611 1133.097) rotate(-168.118)" fill="#dfdfdf"/>
    <path id="Path_79673"  d="M247.76,376.648V364.225h-2.2l.88,12.423Z" transform="translate(2834.266 756.433)" fill="#c1c1c1"/>
    <path id="Path_79674"  d="M266.148,40.573H246.441l-.88,1.319.88,1.319h19.707Z" transform="translate(2834.266 1052.842)" fill="#f39624"/>
    <rect id="Rectangle_3303"  width="1.319" height="12.423" transform="translate(3079.388 1120.657)" fill="#dfdfdf"/>
    <path id="Path_79675"  d="M266.148,351.2v-2.638H246.441l-.88,1.319.88,1.319Z" transform="translate(2834.266 770.781)" fill="#f39624"/>
    <g id="Group_4737"  transform="translate(3061 1093.415)">
      <rect id="Rectangle_3304" width="19.707" height="2.638" transform="translate(0 25.924)" fill="#f7c02d"/>
      <rect id="Rectangle_3305" width="19.707" height="2.638" transform="translate(0 0)" fill="#f7c02d"/>
    </g>
  </g>
</svg>
