<svg xmlns="http://www.w3.org/2000/svg" width="43.821" height="42.36" viewBox="0 0 43.821 42.36">
  <g id="_18_Online_Library" transform="translate(-2 -2)">
    <path id="Path_79629" d="M44.169,41.484H4.73a.73.73,0,0,1-.73-.73V15.191A2.191,2.191,0,0,1,6.191,13H42.708A2.191,2.191,0,0,1,44.9,15.191V40.753A.73.73,0,0,1,44.169,41.484Z" transform="translate(-0.539 -2.966)" fill="#0455bf"/>
    <path id="Path_79630" d="M31.753,40.061A26.293,26.293,0,0,1,5.461,13.768h0a2.149,2.149,0,0,1,.1-.627A2.186,2.186,0,0,0,4,15.229V40.791a.73.73,0,0,0,.73.73H44.169a.73.73,0,0,0,.73-.73v-.73Z" transform="translate(-0.539 -3.004)" fill="#004787"/>
    <path id="Path_79631" d="M42.326,39.641H8.73A.73.73,0,0,1,8,38.91V17.73A.73.73,0,0,1,8.73,17h33.6a.73.73,0,0,1,.73.73V38.91A.73.73,0,0,1,42.326,39.641Z" transform="translate(-1.618 -4.045)" fill="#fdfeff"/>
    <path id="Path_79632" d="M13.73,37.45l23.371.028h0a.73.73,0,0,0,.73-.73V17H13V36.719A.73.73,0,0,0,13.73,37.45Z" transform="translate(-2.966 -4.045)" fill="#b8ced3"/>
    <path id="Path_79633" d="M39.1,29.782h0L15.73,29.753a.73.73,0,0,1-.73-.73V4.191A2.191,2.191,0,0,1,17.191,2h20.45a2.191,2.191,0,0,1,2.191,2.191v24.86A.73.73,0,0,1,39.1,29.782Z" transform="translate(-3.505)" fill="#03a65a"/>
    <path id="Path_79634" d="M16.909,29.7a.73.73,0,0,1-.448-.673V4.191A2.191,2.191,0,0,1,18.652,2H17.191A2.191,2.191,0,0,0,15,4.191V29.023a.73.73,0,0,0,.73.73h1.18Z" transform="translate(-3.505)" fill="#027d44"/>
    <path id="Path_79635" d="M24.112,12.225a.73.73,0,0,1-.406-.123L21.925,10.91,20.135,12.1A.73.73,0,0,1,19,11.495V2h5.843v9.495A.73.73,0,0,1,24.112,12.225Z" transform="translate(-4.584)" fill="#027d44"/>
    <path id="Path_79636" d="M25.112,11.495a.73.73,0,0,1-.406-.123L22.925,10.18l-1.79,1.191A.73.73,0,0,1,20,10.764V2h5.843v8.764A.73.73,0,0,1,25.112,11.495Z" transform="translate(-4.854)" fill="#febc00"/>
    <path id="Path_79637" d="M21.461,10.764V2H20v8.764a.73.73,0,0,0,1.135.608l.412-.274A.723.723,0,0,1,21.461,10.764Z" transform="translate(-4.854)" fill="#edaa03"/>
    <rect id="Rectangle_3292" width="4.236" height="2.118" transform="translate(29.205 20.003)" fill="#febc00"/>
    <rect id="Rectangle_3293" width="4.236" height="1.059" transform="translate(29.205 23.18)" fill="#febc00"/>
    <rect id="Rectangle_3294" width="1.059" height="2.118" transform="translate(26.028 20.003)" fill="#febc00"/>
    <rect id="Rectangle_3295" width="1.059" height="1.059" transform="translate(26.028 23.18)" fill="#febc00"/>
    <path id="Path_79638"  d="M39.248,57.3H8.573A6.58,6.58,0,0,1,2,50.73.73.73,0,0,1,2.73,50h42.36a.73.73,0,0,1,.73.73A6.58,6.58,0,0,1,39.248,57.3Z" transform="translate(0 -12.943)" fill="#0455bf"/>
    <path id="Path_79639"  d="M40.708,55.843H10.034A6.58,6.58,0,0,1,3.5,50H2.73a.73.73,0,0,0-.73.73A6.58,6.58,0,0,0,8.573,57.3H39.248a6.561,6.561,0,0,0,5.314-2.72A6.531,6.531,0,0,1,40.708,55.843Z" transform="translate(0 -12.943)" fill="#004787"/>
    <rect id="Rectangle_3296"  width="1.059" height="2.118" transform="translate(10.143 10.472)" fill="#004787"/>
    <path id="Path_79640"  d="M17.556,36H39.832v3.652a1.461,1.461,0,0,1-1.461,1.461H17.556A2.556,2.556,0,0,1,15,38.556h0A2.556,2.556,0,0,1,17.556,36Z" transform="translate(-3.505 -9.168)" fill="#fdfeff"/>
    <path id="Path_79641"  d="M19.178,39.717a2.7,2.7,0,0,1-2.607-1.838,2.453,2.453,0,0,1,.067-1.637,2.552,2.552,0,0,0-1.625,2.634,2.642,2.642,0,0,0,2.669,2.3H38.371a1.461,1.461,0,0,0,1.461-1.461Z" transform="translate(-3.505 -9.233)" fill="#dfeaef"/>
    <path id="Path_79642"  d="M34.225,52.191H25.461L24,50H35.686Z" transform="translate(-5.932 -12.943)" fill="#febc00"/>
    <path id="Path_79643"  d="M25.217,50H24l1.461,2.191h8.764l.487-.73H27.944A3.281,3.281,0,0,1,25.217,50Z" transform="translate(-5.932 -12.943)" fill="#edaa03"/>
  </g>
</svg>
