<svg xmlns="http://www.w3.org/2000/svg" width="49.267" height="42.321" viewBox="0 0 49.267 42.321">
  <g id="book-education-idea-learning-school-study-svgrepo-com" transform="translate(-136.2 -171)">
    <path id="Path_79399" d="M136.2,1448.636l2.921-4.936,44.2.252,2.148,4.684Z" transform="translate(0 -1237.427)" fill="#46a1f8"/>
    <path id="Path_79400" d="M214.816,1443.78l-13.955-.08-1.161,1.962c2.162-.158,11.934-.646,17.45,2.974h4.26A24.939,24.939,0,0,0,214.816,1443.78Z" transform="translate(-61.74 -1237.427)" fill="#3084d6"/>
    <path id="Path_79401" d="M1071.26,1454.47c6.072-3.985,17.314-2.993,17.86-2.941l-.8-1.743-14.9-.086a24.887,24.887,0,0,0-6.425,4.77Z" transform="translate(-905.003 -1243.261)" fill="#3084d6"/>
    <path id="Path_79402" d="M254.5,905.3l-12.9,11.081,21.712,8.777V907.611Z" transform="translate(-102.479 -713.949)" fill="#c8c2e9"/>
    <path id="Path_79403" d="M1033.811,905.3,1025,907.611v17.547l21.712-8.777Z" transform="translate(-864.167 -713.949)" fill="#c8c2e9"/>
    <path id="Path_79404" d="M1026.164,977.7l-1.095.288-.069,17.68,3.609-1.577Z" transform="translate(-864.167 -784.342)" fill="#231f20" opacity="0.2"/>
    <path id="Path_79405" d="M897.854,983.5l.554.144v17.547L894.8,999.73Z" transform="translate(-737.575 -789.981)" fill="#231f20" opacity="0.2"/>
    <path id="Path_79406" d="M764.943,431.419a7.63,7.63,0,1,0-13.3,5.105,9.422,9.422,0,0,1,2.444,6.3v.014h6.452v-.014a9.323,9.323,0,0,1,2.419-6.275A7.6,7.6,0,0,0,764.943,431.419Z" transform="translate(-596.48 -245.782)" fill="#f4c23f"/>
    <path id="Path_79407" d="M907.9,1110.6h6.488v2.733a3.245,3.245,0,0,1-3.243,3.243h0a3.245,3.245,0,0,1-3.245-3.245V1110.6Z" transform="translate(-750.312 -913.559)" fill="#4d4c78"/>
    <path id="Path_79408" d="M914.391,1154.609h0V1153.5H907.9v1.109Z" transform="translate(-750.312 -955.27)" fill="#323150"/>
    <path id="Path_79409" d="M1005.554,175.157a.554.554,0,0,1-.554-.554v-3.049a.554.554,0,0,1,1.109,0V174.6A.554.554,0,0,1,1005.554,175.157Z" transform="translate(-844.721)" fill="#f8881b"/>
    <path id="Path_79410" d="M650.948,322.1a.56.56,0,0,1-.394-.164l-2.154-2.153a.555.555,0,0,1,.784-.784l2.153,2.156a.554.554,0,0,1-.391.945Z" transform="translate(-497.848 -143.742)" fill="#f8881b"/>
    <path id="Path_79411" d="M1284.635,322.1a.56.56,0,0,0,.393-.164l2.153-2.154a.555.555,0,0,0-.784-.784l-2.154,2.156a.554.554,0,0,0,.391.945Z" transform="translate(-1116.069 -143.741)" fill="#f8881b"/>
    <path id="Path_79412" d="M504,676.709h-3.049a.554.554,0,0,1,0-1.109H504a.554.554,0,0,1,0,1.109Z" transform="translate(-354.106 -490.615)" fill="#f8881b"/>
    <path id="Path_79413" d="M1403.2,676.709h-3.049a.554.554,0,0,1,0-1.109h3.049a.554.554,0,1,1,0,1.109Z" transform="translate(-1228.385 -490.615)" fill="#f8881b"/>
    <rect id="Rectangle_160" width="7.566" height="2.112" transform="translate(157.05 211.209)" fill="#323150"/>
    <rect id="Rectangle_161"  width="20.853" height="2.112" transform="translate(136.2 211.209)" fill="#67baeb"/>
    <rect id="Rectangle_162"  width="20.853" height="2.112" transform="translate(185.467 213.321) rotate(180)" fill="#67baeb"/>
    <path id="Path_79414" d="M207.406,1309.754a24.783,24.783,0,0,0-21.712-8.777l-1.594,4.5s14.021-1.383,19.523,4.276Z" transform="translate(-46.572 -1098.545)" fill="#4d4c78"/>
    <path id="Path_79415" d="M1025,1309.754a24.783,24.783,0,0,1,21.712-8.777l1.594,4.5s-14.021-1.383-19.522,4.276Z" transform="translate(-864.167 -1098.545)" fill="#4d4c78"/>
    <path id="Path_79416" d="M799.941,423.789A7.63,7.63,0,0,0,793.6,427.3a11.676,11.676,0,0,0,10.687,11.227,9.159,9.159,0,0,1,1.372-1.973,7.63,7.63,0,0,0-5.718-12.763Z" transform="translate(-639.18 -245.782)" fill="#fad564"/>
  </g>
</svg>
