<svg xmlns="http://www.w3.org/2000/svg" width="19.5" height="21.5" viewBox="0 0 19.5 21.5">
  <g id="shield-user-svgrepo-com" transform="translate(-2.25 -1.25)">
    <path id="Path_79225" data-name="Path 79225" d="M3,10.417c0-3.2,0-4.8.378-5.334S5.258,4.03,8.265,3l.573-.2A10.289,10.289,0,0,1,12,2a10.29,10.29,0,0,1,3.162.8l.573.2c3.007,1.029,4.51,1.544,4.887,2.082S21,7.219,21,10.417v1.575c0,5.638-4.239,8.374-6.9,9.536A4.194,4.194,0,0,1,12,22a4.2,4.2,0,0,1-2.1-.473c-2.66-1.162-6.9-3.9-6.9-9.536Z" fill="none" stroke="#a9a9a9" stroke-width="1.5"/>
    <circle id="Ellipse_78" data-name="Ellipse 78" cx="2" cy="2" r="2" transform="translate(10 7)" fill="none" stroke="#a9a9a9" stroke-width="1.5"/>
    <path id="Path_79226" data-name="Path 79226" d="M16,15c0,1.1,0,2-4,2s-4-.9-4-2,1.791-2,4-2S16,13.9,16,15Z" fill="none" stroke="#a9a9a9" stroke-width="1.5"/>
  </g>
</svg>
